<svg width="78" height="69" viewBox="0 0 78 69" fill="none" xmlns="http://www.w3.org/2000/svg">
<path d="M58.5 5.75C59.296 5.75009 60.0643 6.00862 60.6592 6.47656C61.2541 6.94449 61.6341 7.58928 61.7272 8.28863L61.75 8.625V20.125C61.7499 20.8292 61.4576 21.5088 60.9287 22.0351C60.3997 22.5613 59.6708 22.8975 58.8803 22.9799L58.5 23H48.75V25.875H58.5C58.9626 25.8752 59.4199 25.9627 59.8413 26.1318C60.2626 26.3008 60.6383 26.5475 60.9432 26.8553C61.2481 27.1631 61.4751 27.525 61.6092 27.9167C61.7433 28.3084 61.7814 28.7209 61.7207 29.1266L61.6558 29.4486L58.4058 40.9486C58.2444 41.5165 57.891 42.0272 57.3927 42.4125C56.8944 42.7978 56.275 43.0394 55.6173 43.1049L55.25 43.125H48.75V60.375C48.7499 61.0792 48.4576 61.7588 47.9287 62.2851C47.3997 62.8113 46.6708 63.1475 45.8802 63.2299L45.5 63.25H32.5C31.704 63.2499 30.9357 62.9914 30.3408 62.5234C29.7459 62.0555 29.3659 61.4107 29.2727 60.7114L29.25 60.375V43.125H22.75C21.954 43.1249 21.1857 42.8664 20.5908 42.3984C19.9959 41.9305 19.6159 41.2857 19.5227 40.5864L19.5 40.25V28.75C19.5001 28.0458 19.7924 27.3662 20.3213 26.8399C20.8503 26.3137 21.5792 25.9775 22.3697 25.8951L22.75 25.875H29.25V23C29.2498 18.5369 31.2051 14.2475 34.705 11.0329C38.2049 7.81832 42.9771 5.92887 48.0187 5.7615L48.75 5.75H58.5Z" fill="black"/>
</svg>
