<svg width="30" height="30" viewBox="0 0 30 30" fill="none" xmlns="http://www.w3.org/2000/svg">
<path fill-rule="evenodd" clip-rule="evenodd" d="M14.1337 0.272992C14.6618 -0.0909973 15.3382 -0.0909973 15.8663 0.272992L29.259 9.50376C30.0066 10.019 30.2248 11.0894 29.7463 11.8945C29.2679 12.6996 28.2739 12.9346 27.5264 12.4193L26.2499 11.5395V25.3846C26.2499 27.9336 24.3311 30 21.9642 30H8.0358C5.6689 30 3.75015 27.9336 3.75015 25.3846V11.5395L2.47365 12.4193C1.72605 12.9346 0.732146 12.6996 0.253688 11.8945C-0.22477 11.0894 -0.00659502 10.019 0.740996 9.50376L14.1337 0.272992ZM9.64293 17.0192C9.64293 17.8721 9.95535 18.6463 10.4637 19.2165L14.2325 23.3824C14.6531 23.8473 15.3469 23.8472 15.7674 23.3822L19.4601 19.2989C20.0132 18.7221 20.3571 17.9139 20.3571 17.0192C20.3571 15.2668 19.0379 13.8462 17.4107 13.8462C16.4142 13.8462 15.5332 15.028 15 15.8434C14.4668 15.028 13.5858 13.8462 12.5893 13.8462C10.9621 13.8462 9.64293 15.2668 9.64293 17.0192Z" fill="white"/>
</svg>
