<svg width="62" height="59" viewBox="0 0 62 59" fill="none" xmlns="http://www.w3.org/2000/svg">
<path fill-rule="evenodd" clip-rule="evenodd" d="M15.1361 1.72958C25.6911 0.641695 36.3092 0.641695 46.8641 1.72958L51.4181 2.19991C53.6227 2.42684 55.6966 3.50397 57.3046 5.25727C58.9126 7.01057 59.9609 9.33764 60.2801 11.8625C61.7634 23.5587 61.7634 35.4413 60.2801 47.1375C59.9603 49.6617 58.9117 51.988 57.3038 53.7406C55.6958 55.4932 53.6223 56.5699 51.4181 56.7966L46.8641 57.267C36.3092 58.3548 25.6911 58.3548 15.1361 57.267L10.5821 56.7966C8.37794 56.5699 6.30443 55.4932 4.69645 53.7406C3.08847 51.988 2.03991 49.6617 1.7201 47.1375C0.236853 35.4413 0.236853 23.5587 1.7201 11.8625C2.03929 9.33764 3.08758 7.01057 4.69562 5.25727C6.30365 3.50397 8.3775 2.42684 10.5821 2.19991L15.1361 1.72958ZM12.5681 11.655C12.2254 11.4419 11.8405 11.335 11.4512 11.3448C11.0619 11.3545 10.6815 11.4806 10.3471 11.7106C10.0127 11.9406 9.73586 12.2668 9.54358 12.6571C9.35129 13.0474 9.25017 13.4886 9.2501 13.9375V46.7917C9.2501 47.4796 9.48716 48.1393 9.90911 48.6257C10.3311 49.1121 10.9034 49.3854 11.5001 49.3854C12.0968 49.3854 12.6691 49.1121 13.0911 48.6257C13.5131 48.1393 13.7501 47.4796 13.7501 46.7917V18.2812L29.9321 28.3242C30.5981 28.7392 31.4021 28.7392 32.0681 28.3242L48.2501 18.2812V46.7917C48.2501 47.4796 48.4872 48.1393 48.9091 48.6257C49.3311 49.1121 49.9034 49.3854 50.5001 49.3854C51.0968 49.3854 51.6691 49.1121 52.0911 48.6257C52.5131 48.1393 52.7501 47.4796 52.7501 46.7917V13.9375C52.75 13.4886 52.6489 13.0474 52.4566 12.6571C52.2643 12.2668 51.9875 11.9406 51.6531 11.7106C51.3187 11.4806 50.9383 11.3545 50.549 11.3448C50.1597 11.335 49.7748 11.4419 49.4321 11.655L31.0001 23.0952L12.5681 11.655Z" fill="black"/>
</svg>
