<svg width="32" height="30" viewBox="0 0 32 30" fill="none" xmlns="http://www.w3.org/2000/svg">
<path d="M23.0338 11.9407C23.0338 18.5353 17.8775 23.8814 11.5169 23.8814C5.1563 23.8814 0 18.5353 0 11.9407C0 5.34602 5.1563 0 11.5169 0C17.8775 0 23.0338 5.34602 23.0338 11.9407ZM3.45508 11.9407C3.45508 16.5569 7.06449 20.2991 11.5169 20.2991C15.9694 20.2991 19.5788 16.5569 19.5788 11.9407C19.5788 7.32442 15.9694 3.5822 11.5169 3.5822C7.06449 3.5822 3.45508 7.32442 3.45508 11.9407Z" fill="#C4C4C4"/>
<line x1="2" y1="-2" x2="15.5408" y2="-2" transform="matrix(0.754453 0.656354 -0.629103 0.777322 16.7664 18.4871)" stroke="#C4C4C4" stroke-width="4" stroke-linecap="round"/>
</svg>
