<svg width="66" height="63" viewBox="0 0 66 63" fill="none" xmlns="http://www.w3.org/2000/svg">
<path d="M33 0C26.4732 0 20.093 1.84744 14.6662 5.30871C9.23937 8.76997 5.00968 13.6896 2.51199 19.4455C0.0142978 25.2013 -0.639211 31.5349 0.634101 37.6453C1.90741 43.7557 5.05036 49.3685 9.66549 53.7739C14.2806 58.1792 20.1607 61.1793 26.562 62.3947C32.9634 63.6102 39.5986 62.9864 45.6286 60.6022C51.6585 58.218 56.8124 54.1806 60.4385 49.0005C64.0646 43.8203 66 37.7301 66 31.5C65.9897 23.1487 62.5096 15.1422 56.3232 9.23697C50.1367 3.3317 41.749 0.00980777 33 0ZM33 3.70588C38.0462 3.70729 43.0054 4.96049 47.3913 7.34261C51.7773 9.72473 55.4394 13.154 58.0185 17.2941H33C29.6069 17.2986 26.317 18.408 23.674 20.439C21.0309 22.4701 19.193 25.3011 18.4638 28.4643L10.0003 14.4746C12.7186 11.123 16.2047 8.4099 20.1914 6.54329C24.1781 4.67668 28.5595 3.70609 33 3.70588ZM44 31.5C44 33.5767 43.3549 35.6068 42.1462 37.3335C40.9375 39.0602 39.2195 40.406 37.2095 41.2007C35.1995 41.9954 32.9878 42.2034 30.854 41.7982C28.7202 41.3931 26.7602 40.3931 25.2218 38.9246C23.6835 37.4562 22.6358 35.5852 22.2114 33.5484C21.7869 31.5116 22.0048 29.4004 22.8373 27.4818C23.6699 25.5632 25.0798 23.9233 26.8887 22.7696C28.6977 21.6158 30.8244 21 33 21C35.9174 21 38.7153 22.1062 40.7782 24.0754C42.8411 26.0445 44 28.7152 44 31.5ZM3.88237 31.5C3.87473 26.7402 5.15639 22.0593 7.60295 17.9118L20.1106 38.6029C20.13 38.6338 20.1527 38.6585 20.1721 38.6863C21.8782 41.4704 24.5273 43.6165 27.6826 44.7707C30.8379 45.9249 34.311 46.0184 37.5294 45.0357L29.0627 59.0378C22.0907 58.121 15.7014 54.8283 11.0735 49.7671C6.44561 44.7059 3.89149 38.2179 3.88237 31.5ZM33.3753 59.2941L45.8894 38.6029L45.9574 38.4763C47.6187 35.6783 48.2339 32.4242 47.7018 29.2484C47.1697 26.0726 45.5221 23.1639 43.0294 21H59.9726C61.7651 25.1923 62.4574 29.7392 61.9893 34.2451C61.5211 38.751 59.9068 43.0795 57.2868 46.8541C54.6667 50.6288 51.1201 53.7352 46.9556 55.9033C42.7911 58.0713 38.1347 59.2354 33.3915 59.2941H33.3753Z" fill="black"/>
</svg>
