<svg width="50" height="50" viewBox="0 0 50 50" fill="none" xmlns="http://www.w3.org/2000/svg">
<path fill-rule="evenodd" clip-rule="evenodd" d="M24.1337 10.273C24.6618 9.909 25.3382 9.909 25.8663 10.273L39.259 19.5038C40.0066 20.019 40.2248 21.0894 39.7463 21.8945C39.2679 22.6996 38.2739 22.9346 37.5264 22.4193L36.2499 21.5395V35.3846C36.2499 37.9336 34.3311 40 31.9642 40H18.0358C15.6689 40 13.7501 37.9336 13.7501 35.3846V21.5395L12.4736 22.4193C11.7261 22.9346 10.7321 22.6996 10.2537 21.8945C9.77523 21.0894 9.9934 20.019 10.741 19.5038L24.1337 10.273ZM19.6429 27.0192C19.6429 27.8721 19.9553 28.6463 20.4637 29.2165L24.2325 33.3824C24.6531 33.8473 25.3469 33.8472 25.7674 33.3822L29.4601 29.2989C30.0132 28.7221 30.3571 27.9139 30.3571 27.0192C30.3571 25.2668 29.0379 23.8462 27.4107 23.8462C26.4142 23.8462 25.5332 25.028 25 25.8434C24.4668 25.028 23.5858 23.8462 22.5893 23.8462C20.9621 23.8462 19.6429 25.2668 19.6429 27.0192Z" fill="white"/>
</svg>
